<mxfile host="app.diagrams.net" modified="2023-05-07T15:19:44.898Z" agent="Mozilla/5.0 (Windows NT 10.0; Win64; x64; rv:108.0) Gecko/20100101 Firefox/108.0" etag="SoyOyP0Zb10-apJTeMN1" version="21.2.9">
  <diagram name="Page-1" id="ROFLr3f5mv9I21dfnOKI">
    <mxGraphModel dx="2206" dy="1160" grid="1" gridSize="10" guides="1" tooltips="1" connect="1" arrows="1" fold="1" page="1" pageScale="1" pageWidth="827" pageHeight="1169" math="0" shadow="0">
      <root>
        <mxCell id="0" />
        <mxCell id="1" parent="0" />
        <mxCell id="gPJMg8Eoax9WCOQulvFN-26" style="edgeStyle=orthogonalEdgeStyle;rounded=0;orthogonalLoop=1;jettySize=auto;html=1;entryX=0;entryY=0.5;entryDx=0;entryDy=0;endArrow=none;endFill=0;" edge="1" parent="1" source="gPJMg8Eoax9WCOQulvFN-2" target="gPJMg8Eoax9WCOQulvFN-3">
          <mxGeometry relative="1" as="geometry" />
        </mxCell>
        <mxCell id="gPJMg8Eoax9WCOQulvFN-27" style="edgeStyle=orthogonalEdgeStyle;rounded=0;orthogonalLoop=1;jettySize=auto;html=1;entryX=0;entryY=0.5;entryDx=0;entryDy=0;endArrow=none;endFill=0;" edge="1" parent="1" source="gPJMg8Eoax9WCOQulvFN-2" target="gPJMg8Eoax9WCOQulvFN-4">
          <mxGeometry relative="1" as="geometry" />
        </mxCell>
        <mxCell id="gPJMg8Eoax9WCOQulvFN-28" style="edgeStyle=orthogonalEdgeStyle;rounded=0;orthogonalLoop=1;jettySize=auto;html=1;entryX=0;entryY=0.5;entryDx=0;entryDy=0;endArrow=none;endFill=0;" edge="1" parent="1" source="gPJMg8Eoax9WCOQulvFN-2" target="gPJMg8Eoax9WCOQulvFN-5">
          <mxGeometry relative="1" as="geometry" />
        </mxCell>
        <mxCell id="gPJMg8Eoax9WCOQulvFN-29" style="edgeStyle=orthogonalEdgeStyle;rounded=0;orthogonalLoop=1;jettySize=auto;html=1;entryX=0;entryY=0.5;entryDx=0;entryDy=0;endArrow=none;endFill=0;" edge="1" parent="1" source="gPJMg8Eoax9WCOQulvFN-2" target="gPJMg8Eoax9WCOQulvFN-6">
          <mxGeometry relative="1" as="geometry" />
        </mxCell>
        <mxCell id="gPJMg8Eoax9WCOQulvFN-30" style="edgeStyle=orthogonalEdgeStyle;rounded=0;orthogonalLoop=1;jettySize=auto;html=1;entryX=0;entryY=0.5;entryDx=0;entryDy=0;endArrow=none;endFill=0;" edge="1" parent="1" source="gPJMg8Eoax9WCOQulvFN-2" target="gPJMg8Eoax9WCOQulvFN-7">
          <mxGeometry relative="1" as="geometry" />
        </mxCell>
        <mxCell id="gPJMg8Eoax9WCOQulvFN-31" style="edgeStyle=orthogonalEdgeStyle;rounded=0;orthogonalLoop=1;jettySize=auto;html=1;entryX=0;entryY=0.5;entryDx=0;entryDy=0;endArrow=none;endFill=0;" edge="1" parent="1" source="gPJMg8Eoax9WCOQulvFN-2" target="gPJMg8Eoax9WCOQulvFN-8">
          <mxGeometry relative="1" as="geometry" />
        </mxCell>
        <mxCell id="gPJMg8Eoax9WCOQulvFN-2" value="&lt;font style=&quot;font-size: 20px;&quot;&gt;&lt;font style=&quot;font-size: 20px;&quot;&gt;系統&lt;/font&gt;&lt;br&gt;&lt;/font&gt;" style="rounded=0;whiteSpace=wrap;html=1;" vertex="1" parent="1">
          <mxGeometry y="560" width="160" height="40" as="geometry" />
        </mxCell>
        <mxCell id="gPJMg8Eoax9WCOQulvFN-32" style="edgeStyle=orthogonalEdgeStyle;rounded=0;orthogonalLoop=1;jettySize=auto;html=1;entryX=0;entryY=0.5;entryDx=0;entryDy=0;endArrow=none;endFill=0;" edge="1" parent="1" source="gPJMg8Eoax9WCOQulvFN-3" target="gPJMg8Eoax9WCOQulvFN-10">
          <mxGeometry relative="1" as="geometry" />
        </mxCell>
        <mxCell id="gPJMg8Eoax9WCOQulvFN-33" style="edgeStyle=orthogonalEdgeStyle;rounded=0;orthogonalLoop=1;jettySize=auto;html=1;endArrow=none;endFill=0;" edge="1" parent="1" source="gPJMg8Eoax9WCOQulvFN-3" target="gPJMg8Eoax9WCOQulvFN-11">
          <mxGeometry relative="1" as="geometry" />
        </mxCell>
        <mxCell id="gPJMg8Eoax9WCOQulvFN-3" value="&lt;font style=&quot;font-size: 20px;&quot;&gt;提案&lt;br&gt;&lt;/font&gt;" style="rounded=0;whiteSpace=wrap;html=1;" vertex="1" parent="1">
          <mxGeometry x="264" y="40" width="200" height="40" as="geometry" />
        </mxCell>
        <mxCell id="gPJMg8Eoax9WCOQulvFN-34" style="edgeStyle=orthogonalEdgeStyle;rounded=0;orthogonalLoop=1;jettySize=auto;html=1;endArrow=none;endFill=0;" edge="1" parent="1" source="gPJMg8Eoax9WCOQulvFN-4" target="gPJMg8Eoax9WCOQulvFN-13">
          <mxGeometry relative="1" as="geometry" />
        </mxCell>
        <mxCell id="gPJMg8Eoax9WCOQulvFN-4" value="&lt;font style=&quot;font-size: 20px;&quot;&gt;&lt;font style=&quot;font-size: 20px;&quot;&gt;起始&lt;/font&gt;&lt;br&gt;&lt;/font&gt;" style="rounded=0;whiteSpace=wrap;html=1;" vertex="1" parent="1">
          <mxGeometry x="264" y="200" width="200" height="40" as="geometry" />
        </mxCell>
        <mxCell id="gPJMg8Eoax9WCOQulvFN-35" style="edgeStyle=orthogonalEdgeStyle;rounded=0;orthogonalLoop=1;jettySize=auto;html=1;entryX=0;entryY=0.5;entryDx=0;entryDy=0;endArrow=none;endFill=0;" edge="1" parent="1" source="gPJMg8Eoax9WCOQulvFN-5" target="gPJMg8Eoax9WCOQulvFN-12">
          <mxGeometry relative="1" as="geometry" />
        </mxCell>
        <mxCell id="gPJMg8Eoax9WCOQulvFN-5" value="&lt;font style=&quot;font-size: 20px;&quot;&gt;計畫&lt;br&gt;&lt;/font&gt;" style="rounded=0;whiteSpace=wrap;html=1;" vertex="1" parent="1">
          <mxGeometry x="264" y="320" width="200" height="40" as="geometry" />
        </mxCell>
        <mxCell id="gPJMg8Eoax9WCOQulvFN-36" style="edgeStyle=orthogonalEdgeStyle;rounded=0;orthogonalLoop=1;jettySize=auto;html=1;entryX=0;entryY=0.5;entryDx=0;entryDy=0;endArrow=none;endFill=0;" edge="1" parent="1" source="gPJMg8Eoax9WCOQulvFN-6" target="gPJMg8Eoax9WCOQulvFN-14">
          <mxGeometry relative="1" as="geometry" />
        </mxCell>
        <mxCell id="gPJMg8Eoax9WCOQulvFN-37" style="edgeStyle=orthogonalEdgeStyle;rounded=0;orthogonalLoop=1;jettySize=auto;html=1;entryX=0;entryY=0.5;entryDx=0;entryDy=0;endArrow=none;endFill=0;" edge="1" parent="1" source="gPJMg8Eoax9WCOQulvFN-6" target="gPJMg8Eoax9WCOQulvFN-15">
          <mxGeometry relative="1" as="geometry" />
        </mxCell>
        <mxCell id="gPJMg8Eoax9WCOQulvFN-38" style="edgeStyle=orthogonalEdgeStyle;rounded=0;orthogonalLoop=1;jettySize=auto;html=1;endArrow=none;endFill=0;" edge="1" parent="1" source="gPJMg8Eoax9WCOQulvFN-6" target="gPJMg8Eoax9WCOQulvFN-16">
          <mxGeometry relative="1" as="geometry" />
        </mxCell>
        <mxCell id="gPJMg8Eoax9WCOQulvFN-39" style="edgeStyle=orthogonalEdgeStyle;rounded=0;orthogonalLoop=1;jettySize=auto;html=1;entryX=0;entryY=0.5;entryDx=0;entryDy=0;endArrow=none;endFill=0;" edge="1" parent="1" source="gPJMg8Eoax9WCOQulvFN-6" target="gPJMg8Eoax9WCOQulvFN-17">
          <mxGeometry relative="1" as="geometry" />
        </mxCell>
        <mxCell id="gPJMg8Eoax9WCOQulvFN-40" style="edgeStyle=orthogonalEdgeStyle;rounded=0;orthogonalLoop=1;jettySize=auto;html=1;entryX=0;entryY=0.5;entryDx=0;entryDy=0;endArrow=none;endFill=0;" edge="1" parent="1" source="gPJMg8Eoax9WCOQulvFN-6" target="gPJMg8Eoax9WCOQulvFN-18">
          <mxGeometry relative="1" as="geometry" />
        </mxCell>
        <mxCell id="gPJMg8Eoax9WCOQulvFN-6" value="&lt;font style=&quot;font-size: 20px;&quot;&gt;執行&lt;br&gt;&lt;/font&gt;" style="rounded=0;whiteSpace=wrap;html=1;" vertex="1" parent="1">
          <mxGeometry x="264" y="560.5" width="200" height="40" as="geometry" />
        </mxCell>
        <mxCell id="gPJMg8Eoax9WCOQulvFN-41" style="edgeStyle=orthogonalEdgeStyle;rounded=0;orthogonalLoop=1;jettySize=auto;html=1;entryX=0;entryY=0.5;entryDx=0;entryDy=0;endArrow=none;endFill=0;" edge="1" parent="1" source="gPJMg8Eoax9WCOQulvFN-7" target="gPJMg8Eoax9WCOQulvFN-19">
          <mxGeometry relative="1" as="geometry" />
        </mxCell>
        <mxCell id="gPJMg8Eoax9WCOQulvFN-42" style="edgeStyle=orthogonalEdgeStyle;rounded=0;orthogonalLoop=1;jettySize=auto;html=1;entryX=0;entryY=0.5;entryDx=0;entryDy=0;endArrow=none;endFill=0;" edge="1" parent="1" source="gPJMg8Eoax9WCOQulvFN-7" target="gPJMg8Eoax9WCOQulvFN-21">
          <mxGeometry relative="1" as="geometry" />
        </mxCell>
        <mxCell id="gPJMg8Eoax9WCOQulvFN-7" value="&lt;font style=&quot;font-size: 20px;&quot;&gt;管控&lt;br&gt;&lt;/font&gt;" style="rounded=0;whiteSpace=wrap;html=1;" vertex="1" parent="1">
          <mxGeometry x="264" y="830" width="200" height="40" as="geometry" />
        </mxCell>
        <mxCell id="gPJMg8Eoax9WCOQulvFN-43" style="edgeStyle=orthogonalEdgeStyle;rounded=0;orthogonalLoop=1;jettySize=auto;html=1;entryX=0;entryY=0.5;entryDx=0;entryDy=0;endArrow=none;endFill=0;" edge="1" parent="1" source="gPJMg8Eoax9WCOQulvFN-8" target="gPJMg8Eoax9WCOQulvFN-20">
          <mxGeometry relative="1" as="geometry" />
        </mxCell>
        <mxCell id="gPJMg8Eoax9WCOQulvFN-44" style="edgeStyle=orthogonalEdgeStyle;rounded=0;orthogonalLoop=1;jettySize=auto;html=1;endArrow=none;endFill=0;" edge="1" parent="1" source="gPJMg8Eoax9WCOQulvFN-8" target="gPJMg8Eoax9WCOQulvFN-22">
          <mxGeometry relative="1" as="geometry" />
        </mxCell>
        <mxCell id="gPJMg8Eoax9WCOQulvFN-45" style="edgeStyle=orthogonalEdgeStyle;rounded=0;orthogonalLoop=1;jettySize=auto;html=1;entryX=0;entryY=0.5;entryDx=0;entryDy=0;endArrow=none;endFill=0;" edge="1" parent="1" source="gPJMg8Eoax9WCOQulvFN-8" target="gPJMg8Eoax9WCOQulvFN-24">
          <mxGeometry relative="1" as="geometry" />
        </mxCell>
        <mxCell id="gPJMg8Eoax9WCOQulvFN-8" value="&lt;font style=&quot;font-size: 20px;&quot;&gt;結案&lt;br&gt;&lt;/font&gt;" style="rounded=0;whiteSpace=wrap;html=1;" vertex="1" parent="1">
          <mxGeometry x="264" y="1040" width="200" height="40" as="geometry" />
        </mxCell>
        <mxCell id="gPJMg8Eoax9WCOQulvFN-10" value="&lt;div style=&quot;font-size: 20px;&quot;&gt;&lt;font style=&quot;font-size: 20px;&quot;&gt;定義專案需求&lt;br&gt;&lt;/font&gt;&lt;/div&gt;" style="rounded=0;whiteSpace=wrap;html=1;" vertex="1" parent="1">
          <mxGeometry x="570" width="200" height="40" as="geometry" />
        </mxCell>
        <mxCell id="gPJMg8Eoax9WCOQulvFN-11" value="&lt;div style=&quot;font-size: 20px;&quot;&gt;&lt;font style=&quot;font-size: 20px;&quot;&gt;提出問題解決方案&lt;br&gt;&lt;/font&gt;&lt;/div&gt;" style="rounded=0;whiteSpace=wrap;html=1;" vertex="1" parent="1">
          <mxGeometry x="570" y="80" width="200" height="40" as="geometry" />
        </mxCell>
        <mxCell id="gPJMg8Eoax9WCOQulvFN-12" value="&lt;div style=&quot;font-size: 20px;&quot;&gt;&lt;font style=&quot;font-size: 20px;&quot;&gt;製作企畫書&lt;/font&gt;&lt;/div&gt;" style="rounded=0;whiteSpace=wrap;html=1;" vertex="1" parent="1">
          <mxGeometry x="570" y="320" width="200" height="40" as="geometry" />
        </mxCell>
        <mxCell id="gPJMg8Eoax9WCOQulvFN-13" value="&lt;div style=&quot;font-size: 20px;&quot;&gt;&lt;font style=&quot;font-size: 20px;&quot;&gt;製作系統需求規格書&lt;/font&gt;&lt;/div&gt;" style="rounded=0;whiteSpace=wrap;html=1;" vertex="1" parent="1">
          <mxGeometry x="570" y="200" width="200" height="40" as="geometry" />
        </mxCell>
        <mxCell id="gPJMg8Eoax9WCOQulvFN-14" value="&lt;font style=&quot;font-size: 20px;&quot;&gt;網頁設計&lt;br&gt;&lt;/font&gt;" style="rounded=0;whiteSpace=wrap;html=1;" vertex="1" parent="1">
          <mxGeometry x="570" y="439.5" width="200" height="40" as="geometry" />
        </mxCell>
        <mxCell id="gPJMg8Eoax9WCOQulvFN-15" value="&lt;font style=&quot;font-size: 20px;&quot;&gt;後端程式設計&lt;br&gt;&lt;/font&gt;" style="rounded=0;whiteSpace=wrap;html=1;" vertex="1" parent="1">
          <mxGeometry x="570" y="500.5" width="200" height="40" as="geometry" />
        </mxCell>
        <mxCell id="gPJMg8Eoax9WCOQulvFN-16" value="&lt;font style=&quot;font-size: 20px;&quot;&gt;資料庫設計&lt;br&gt;&lt;/font&gt;" style="rounded=0;whiteSpace=wrap;html=1;" vertex="1" parent="1">
          <mxGeometry x="570" y="560.5" width="200" height="40" as="geometry" />
        </mxCell>
        <mxCell id="gPJMg8Eoax9WCOQulvFN-17" value="&lt;font style=&quot;font-size: 20px;&quot;&gt;系統測試&lt;br&gt;&lt;/font&gt;" style="rounded=0;whiteSpace=wrap;html=1;" vertex="1" parent="1">
          <mxGeometry x="570" y="620.5" width="200" height="40" as="geometry" />
        </mxCell>
        <mxCell id="gPJMg8Eoax9WCOQulvFN-18" value="&lt;font style=&quot;font-size: 20px;&quot;&gt;系統上線&lt;br&gt;&lt;/font&gt;" style="rounded=0;whiteSpace=wrap;html=1;" vertex="1" parent="1">
          <mxGeometry x="570" y="680.5" width="200" height="40" as="geometry" />
        </mxCell>
        <mxCell id="gPJMg8Eoax9WCOQulvFN-19" value="&lt;font style=&quot;font-size: 20px;&quot;&gt;品質管控&lt;br&gt;&lt;/font&gt;" style="rounded=0;whiteSpace=wrap;html=1;" vertex="1" parent="1">
          <mxGeometry x="570" y="790" width="200" height="40" as="geometry" />
        </mxCell>
        <mxCell id="gPJMg8Eoax9WCOQulvFN-20" value="&lt;font style=&quot;font-size: 20px;&quot;&gt;成本管控&lt;br&gt;&lt;/font&gt;" style="rounded=0;whiteSpace=wrap;html=1;" vertex="1" parent="1">
          <mxGeometry x="570" y="970" width="200" height="40" as="geometry" />
        </mxCell>
        <mxCell id="gPJMg8Eoax9WCOQulvFN-21" value="&lt;font style=&quot;font-size: 20px;&quot;&gt;時間管控&lt;br&gt;&lt;/font&gt;" style="rounded=0;whiteSpace=wrap;html=1;" vertex="1" parent="1">
          <mxGeometry x="570" y="870" width="200" height="40" as="geometry" />
        </mxCell>
        <mxCell id="gPJMg8Eoax9WCOQulvFN-22" value="&lt;font style=&quot;font-size: 20px;&quot;&gt;溝通與報告&lt;br&gt;&lt;/font&gt;" style="rounded=0;whiteSpace=wrap;html=1;" vertex="1" parent="1">
          <mxGeometry x="570" y="1040" width="200" height="40" as="geometry" />
        </mxCell>
        <mxCell id="gPJMg8Eoax9WCOQulvFN-24" value="&lt;font style=&quot;font-size: 20px;&quot;&gt;結案報告&lt;br&gt;&lt;/font&gt;" style="rounded=0;whiteSpace=wrap;html=1;" vertex="1" parent="1">
          <mxGeometry x="570" y="1110" width="200" height="40" as="geometry" />
        </mxCell>
      </root>
    </mxGraphModel>
  </diagram>
</mxfile>
